# xmcd CD database file
#
# Track frame offsets:
#	150
#	13492
#	40332
#	54518
#	63432
#	73296
#	91773
#	119058
#	151470
#	183757
#	195147
#	214607
#	231136
#	275256
#	316361
#	331581
#
# Disc length: 4644 seconds
#
# Revision: 0
# Processed by: cddbd v1.5.1PL2 Copyright (c) Steve Scherf et al.
# Submitted via: CDex 1.51
#
DISCID=dd122210
DTITLE=Higher Ground  - Hurricane Relief Concert (2|2)
DYEAR=2005
DGENRE=Jazz
TTITLE0=Norah Jones - I Think It's Gonna Rain Today
TTITLE1=McCoy Tyner - Trane-Like
TTITLE2=Elvis Costello and Allen Touis - Freedom for the Stallion
TTITLE3=Buckwheat Zydeco - I'm Gonna Love You Anyway
TTITLE4=Wynton Marsalis Septet - Dippermouth Blues
TTITLE5=James Taylor - Never Die Young
TTITLE6=Jordan Family - Here's to Life
TTITLE7=Terence Blanchard - Over There
TTITLE8=Marsalis Family - Twelve's It
TTITLE9=Jon Hendricks - This Love of Mine
TTITLE10=Jon Hendricks - Tell Me the Truth
TTITLE11=Peter Cincotti - Bring Back New Orleans
TTITLE12=Lincoln Center Afro-Latin Jazz - Havana Blues with Salt Peanuts
TTITLE13=Cassandra Wilson with Lincoln - Come Sunday
TTITLE14=Dr. John - Sweet Home New Orleans, Part One
TTITLE15=Dr. John - Sweet Home New Orleans, Part Two
EXTD=YEAR: 2005
EXTT0=
EXTT1=
EXTT2=
EXTT3=
EXTT4=
EXTT5=
EXTT6=
EXTT7=
EXTT8=
EXTT9=
EXTT10=
EXTT11=
EXTT12=
EXTT13=
EXTT14=
EXTT15=
PLAYORDER=
